<svg width="40" height="40" viewBox="0 0 40 40" fill="none" xmlns="http://www.w3.org/2000/svg">
<path d="M33.75 9H27.5V7.75C27.5 6.75544 27.1049 5.80161 26.4017 5.09835C25.6984 4.39509 24.7446 4 23.75 4H16.25C15.2554 4 14.3016 4.39509 13.5983 5.09835C12.8951 5.80161 12.5 6.75544 12.5 7.75V9H6.25C5.91848 9 5.60054 9.1317 5.36612 9.36612C5.1317 9.60054 5 9.91848 5 10.25C5 10.5815 5.1317 10.8995 5.36612 11.1339C5.60054 11.3683 5.91848 11.5 6.25 11.5H7.5V34C7.5 34.663 7.76339 35.2989 8.23223 35.7678C8.70107 36.2366 9.33696 36.5 10 36.5H30C30.663 36.5 31.2989 36.2366 31.7678 35.7678C32.2366 35.2989 32.5 34.663 32.5 34V11.5H33.75C34.0815 11.5 34.3995 11.3683 34.6339 11.1339C34.8683 10.8995 35 10.5815 35 10.25C35 9.91848 34.8683 9.60054 34.6339 9.36612C34.3995 9.1317 34.0815 9 33.75 9ZM15 7.75C15 7.41848 15.1317 7.10054 15.3661 6.86612C15.6005 6.6317 15.9185 6.5 16.25 6.5H23.75C24.0815 6.5 24.3995 6.6317 24.6339 6.86612C24.8683 7.10054 25 7.41848 25 7.75V9H15V7.75ZM30 34H10V11.5H30V34ZM17.5 17.75V27.75C17.5 28.0815 17.3683 28.3995 17.1339 28.6339C16.8995 28.8683 16.5815 29 16.25 29C15.9185 29 15.6005 28.8683 15.3661 28.6339C15.1317 28.3995 15 28.0815 15 27.75V17.75C15 17.4185 15.1317 17.1005 15.3661 16.8661C15.6005 16.6317 15.9185 16.5 16.25 16.5C16.5815 16.5 16.8995 16.6317 17.1339 16.8661C17.3683 17.1005 17.5 17.4185 17.5 17.75ZM25 17.75V27.75C25 28.0815 24.8683 28.3995 24.6339 28.6339C24.3995 28.8683 24.0815 29 23.75 29C23.4185 29 23.1005 28.8683 22.8661 28.6339C22.6317 28.3995 22.5 28.0815 22.5 27.75V17.75C22.5 17.4185 22.6317 17.1005 22.8661 16.8661C23.1005 16.6317 23.4185 16.5 23.75 16.5C24.0815 16.5 24.3995 16.6317 24.6339 16.8661C24.8683 17.1005 25 17.4185 25 17.75Z" fill="#222222"/>
</svg>
