<svg width="40" height="40" viewBox="0 0 40 40" fill="none" xmlns="http://www.w3.org/2000/svg">
<path d="M17.3075 3.44501C19.0406 2.77838 20.9594 2.77838 22.6925 3.44501L35.0975 8.21501C35.8047 8.48732 36.4128 8.96751 36.8417 9.59231C37.2706 10.2171 37.5001 10.9572 37.5 11.715V28.28C37.5001 29.0378 37.2706 29.7779 36.8417 30.4027C36.4128 31.0275 35.8047 31.5077 35.0975 31.78L22.6925 36.5525C20.9594 37.2191 19.0406 37.2191 17.3075 36.5525L4.905 31.78C4.19732 31.5081 3.58867 31.0281 3.15933 30.4032C2.72998 29.7784 2.5001 29.0381 2.5 28.28V11.715C2.5001 10.9569 2.72998 10.2166 3.15933 9.59177C3.58867 8.96694 4.19732 8.48692 4.905 8.21501L17.3075 3.44501ZM21.795 5.77751C20.6396 5.33309 19.3604 5.33309 18.205 5.77751L14.745 7.11001L28.72 12.4L33.59 10.315L21.795 5.77751ZM35 12.4275L21.25 18.325V34.395C21.435 34.3475 21.615 34.29 21.795 34.22L34.2 29.45C34.4357 29.359 34.6383 29.1988 34.7811 28.9904C34.924 28.782 35.0003 28.5352 35 28.2825V12.4275ZM18.75 34.3925V18.325L5 12.43V28.28C4.99974 28.5327 5.07604 28.7795 5.21885 28.9879C5.36167 29.1963 5.56429 29.3566 5.8 29.4475L18.205 34.2175C18.385 34.2875 18.565 34.345 18.75 34.3925ZM6.41 10.315L20 16.14L25.41 13.82L11.2425 8.45501L6.41 10.315Z" fill="#222222"/>
</svg>
