<svg width="39" height="39" viewBox="0 0 39 39" fill="none" xmlns="http://www.w3.org/2000/svg">
<path d="M19.0795 12.1998C17.7188 12.1998 16.3887 12.6033 15.2574 13.3592C14.126 14.1152 13.2442 15.1896 12.7235 16.4467C12.2028 17.7038 12.0666 19.0871 12.332 20.4216C12.5975 21.7562 13.2527 22.982 14.2148 23.9442C15.177 24.9063 16.4028 25.5615 17.7374 25.827C19.0719 26.0924 20.4552 25.9562 21.7123 25.4355C22.9694 24.9148 24.0438 24.033 24.7998 22.9016C25.5557 21.7703 25.9592 20.4402 25.9592 19.0795C25.9573 17.2555 25.2319 15.5067 23.9421 14.2169C22.6523 12.9271 20.9035 12.2017 19.0795 12.1998ZM19.0795 23.6659C18.1724 23.6659 17.2857 23.3969 16.5314 22.893C15.7772 22.389 15.1893 21.6727 14.8422 20.8346C14.495 19.9966 14.4042 19.0744 14.5812 18.1847C14.7582 17.295 15.195 16.4778 15.8364 15.8364C16.4778 15.1949 17.2951 14.7581 18.1847 14.5812C19.0744 14.4042 19.9966 14.495 20.8347 14.8422C21.6727 15.1893 22.389 15.7772 22.893 16.5314C23.397 17.2856 23.666 18.1724 23.666 19.0795C23.666 20.2959 23.1828 21.4625 22.3226 22.3226C21.4625 23.1827 20.2959 23.6659 19.0795 23.6659ZM31.6923 19.3891C31.698 19.1827 31.698 18.9763 31.6923 18.7699L33.8307 16.0983C33.9428 15.958 34.0204 15.7934 34.0573 15.6176C34.0941 15.4419 34.0892 15.2599 34.0428 15.0864C33.6922 13.7687 33.1678 12.5034 32.4834 11.3241C32.3938 11.1697 32.2694 11.0385 32.1201 10.9407C31.9708 10.8429 31.8007 10.7813 31.6235 10.7608L28.2238 10.3824C28.0823 10.2334 27.939 10.09 27.7938 9.95245L27.3925 6.54414C27.3718 6.36672 27.31 6.19657 27.212 6.04727C27.1139 5.89797 26.9824 5.77363 26.8278 5.68418C25.6479 5.00101 24.3828 4.47713 23.0654 4.12622C22.8918 4.08007 22.7098 4.07534 22.534 4.11244C22.3583 4.14953 22.1937 4.22741 22.0535 4.33978L19.3891 6.46674H18.7699L16.0983 4.33261C15.958 4.22048 15.7934 4.14287 15.6176 4.10603C15.4419 4.06918 15.2599 4.07414 15.0864 4.12049C13.7689 4.47168 12.5038 4.99605 11.3241 5.67988C11.1698 5.7695 11.0385 5.8939 10.9407 6.0432C10.8429 6.19249 10.7813 6.36255 10.7608 6.53984L10.3825 9.94528C10.2334 10.0877 10.0901 10.231 9.95248 10.3753L6.54417 10.7665C6.36675 10.7872 6.19661 10.849 6.0473 10.947C5.898 11.0451 5.77366 11.1766 5.68421 11.3312C5.00104 12.5111 4.47716 13.7762 4.12625 15.0936C4.0801 15.2672 4.07537 15.4492 4.11247 15.625C4.14956 15.8007 4.22744 15.9653 4.33981 16.1055L6.46677 18.7699V19.3891L4.33264 22.0607C4.22051 22.201 4.1429 22.3656 4.10606 22.5414C4.06921 22.7171 4.07417 22.8991 4.12052 23.0726C4.47108 24.3903 4.99548 25.6555 5.67991 26.8349C5.76953 26.9892 5.89393 27.1205 6.04323 27.2183C6.19252 27.3161 6.36258 27.3777 6.53987 27.3982L9.93958 27.7765C10.0819 27.9256 10.2253 28.0689 10.3696 28.2065L10.7666 31.6148C10.7872 31.7922 10.849 31.9624 10.9471 32.1117C11.0451 32.261 11.1767 32.3853 11.3313 32.4748C12.5111 33.158 13.7762 33.6818 15.0936 34.0327C15.2672 34.0789 15.4492 34.0836 15.625 34.0465C15.8008 34.0094 15.9653 33.9316 16.1055 33.8192L18.7699 31.6922C18.9763 31.698 19.1827 31.698 19.3891 31.6922L22.0607 33.8307C22.201 33.9428 22.3656 34.0204 22.5414 34.0572C22.7171 34.0941 22.8991 34.0891 23.0726 34.0428C24.3903 33.6922 25.6556 33.1678 26.8349 32.4834C26.9893 32.3938 27.1205 32.2694 27.2183 32.1201C27.3161 31.9708 27.3777 31.8007 27.3982 31.6234L27.7766 28.2237C27.9256 28.0823 28.069 27.939 28.2066 27.7937L31.6149 27.3924C31.7923 27.3718 31.9624 27.31 32.1117 27.2119C32.261 27.1139 32.3854 26.9823 32.4748 26.8277C33.158 25.6479 33.6819 24.3828 34.0328 23.0654C34.0789 22.8918 34.0837 22.7098 34.0466 22.534C34.0095 22.3582 33.9316 22.1937 33.8192 22.0535L31.6923 19.3891ZM29.3847 18.4574C29.4091 18.8718 29.4091 19.2872 29.3847 19.7015C29.3676 19.9852 29.4565 20.2651 29.6341 20.487L31.6679 23.0281C31.4345 23.7698 31.1357 24.4893 30.775 25.178L27.5358 25.5449C27.2537 25.5763 26.9932 25.7111 26.8048 25.9233C26.5289 26.2336 26.2351 26.5275 25.9248 26.8034C25.7125 26.9918 25.5777 27.2522 25.5464 27.5343L25.1867 30.7706C24.498 31.1315 23.7785 31.4304 23.0368 31.6636L20.4941 29.6298C20.2907 29.4672 20.0379 29.3787 19.7775 29.3789H19.7087C19.2944 29.4033 18.879 29.4033 18.4646 29.3789C18.181 29.3619 17.9011 29.4507 17.6792 29.6283L15.1309 31.6636C14.3892 31.4302 13.6697 31.1314 12.981 30.7706L12.6141 27.5358C12.5827 27.2537 12.4479 26.9932 12.2357 26.8048C11.9254 26.5289 11.6315 26.2351 11.3556 25.9248C11.1672 25.7125 10.9068 25.5777 10.6247 25.5464L7.38836 25.1852C7.02746 24.4965 6.72863 23.777 6.49544 23.0353L8.52924 20.4927C8.70683 20.2708 8.79571 19.9909 8.77863 19.7073C8.75427 19.2929 8.75427 18.8775 8.77863 18.4632C8.79571 18.1795 8.70683 17.8996 8.52924 17.6778L6.49544 15.1308C6.72881 14.3892 7.02763 13.6697 7.38836 12.9809L10.6232 12.614C10.9053 12.5827 11.1658 12.4479 11.3542 12.2356C11.6301 11.9254 11.9239 11.6315 12.2342 11.3556C12.4473 11.1671 12.5827 10.906 12.6141 10.6232L12.9738 7.38833C13.6625 7.02743 14.382 6.7286 15.1237 6.49541L17.6663 8.52921C17.8882 8.7068 18.1681 8.79568 18.4517 8.7786C18.8661 8.75424 19.2815 8.75424 19.6958 8.7786C19.9795 8.79568 20.2594 8.7068 20.4812 8.52921L23.0282 6.49541C23.7698 6.72878 24.4893 7.0276 25.1781 7.38833L25.545 10.6232C25.5763 10.9053 25.7111 11.1658 25.9234 11.3542C26.2337 11.6301 26.5275 11.9239 26.8034 12.2342C26.9918 12.4465 27.2523 12.5813 27.5344 12.6126L30.7707 12.9723C31.1316 13.661 31.4304 14.3805 31.6636 15.1222L29.6298 17.6649C29.4505 17.8886 29.3615 18.1714 29.3804 18.4574H29.3847Z" fill="#222222"/>
</svg>
