<svg width="40" height="40" viewBox="0 0 40 40" fill="none" xmlns="http://www.w3.org/2000/svg">
<path d="M5 14.595V27C5 28.3261 5.52678 29.5979 6.46447 30.5355C7.40215 31.4732 8.67392 32 10 32H30C31.3261 32 32.5979 31.4732 33.5355 30.5355C34.4732 29.5979 35 28.3261 35 27V12C35 10.6739 34.4732 9.40215 33.5355 8.46447C32.5979 7.52678 31.3261 7 30 7H10C8.67392 7 7.40215 7.52678 6.46447 8.46447C5.52678 9.40215 5 10.6739 5 12V14.595ZM10 9.5H30C30.663 9.5 31.2989 9.76339 31.7678 10.2322C32.2366 10.7011 32.5 11.337 32.5 12V13.85L20 20.58L7.5 13.85V12C7.5 11.337 7.76339 10.7011 8.23223 10.2322C8.70107 9.76339 9.33696 9.5 10 9.5ZM7.5 16.69L19.4075 23.1C19.5896 23.198 19.7932 23.2493 20 23.2493C20.2068 23.2493 20.4104 23.198 20.5925 23.1L32.5 16.69V27C32.5 27.663 32.2366 28.2989 31.7678 28.7678C31.2989 29.2366 30.663 29.5 30 29.5H10C9.33696 29.5 8.70107 29.2366 8.23223 28.7678C7.76339 28.2989 7.5 27.663 7.5 27V16.69Z" fill="#222222"/>
</svg>
