<svg width="40" height="40" viewBox="0 0 40 40" fill="none" xmlns="http://www.w3.org/2000/svg">
<path d="M29.8181 7.99998L19.9999 17.8182L10.1817 7.99998C9.89239 7.71065 9.49998 7.54811 9.09081 7.54811C8.68164 7.54811 8.28923 7.71065 7.9999 7.99998C7.71057 8.28931 7.54803 8.68172 7.54803 9.09089C7.54803 9.50006 7.71057 9.89247 7.9999 10.1818L17.8181 20L7.9999 29.8182C7.71057 30.1075 7.54803 30.4999 7.54803 30.9091C7.54803 31.3183 7.71057 31.7107 7.9999 32C8.28923 32.2893 8.68164 32.4519 9.09081 32.4519C9.49998 32.4519 9.89239 32.2893 10.1817 32L19.9999 22.1818L29.8181 32C30.1074 32.2893 30.4999 32.4519 30.909 32.4519C31.3182 32.4519 31.7106 32.2893 31.9999 32C32.2893 31.7107 32.4518 31.3183 32.4518 30.9091C32.4518 30.4999 32.2893 30.1075 31.9999 29.8182L22.1817 20L31.9999 10.1818C32.2893 9.89248 32.4518 9.50006 32.4518 9.09089C32.4518 8.68172 32.2893 8.28931 31.9999 7.99998C31.7106 7.71065 31.3182 7.54811 30.909 7.54811C30.4999 7.54811 30.1074 7.71065 29.8181 7.99998Z" fill="#222222"/>
</svg>
