<svg width="40" height="40" viewBox="0 0 40 40" fill="none" xmlns="http://www.w3.org/2000/svg">
<path d="M31.1111 33.3333H6.66668V8.88888H21.3556L23.5778 6.66666H6.66668C6.07731 6.66666 5.51208 6.90078 5.09533 7.31753C4.67858 7.73428 4.44446 8.29951 4.44446 8.88888V33.3333C4.44446 33.9227 4.67858 34.4879 5.09533 34.9047C5.51208 35.3214 6.07731 35.5555 6.66668 35.5555H31.1111C31.7005 35.5555 32.2657 35.3214 32.6825 34.9047C33.0992 34.4879 33.3333 33.9227 33.3333 33.3333V16.6667L31.1111 18.8889V33.3333Z" fill="#222222"/>
<path d="M37.2556 6.48888L33.5112 2.74444C33.345 2.5778 33.1476 2.4456 32.9302 2.35539C32.7128 2.26518 32.4798 2.21875 32.2445 2.21875C32.0092 2.21875 31.7761 2.26518 31.5588 2.35539C31.3414 2.4456 31.144 2.5778 30.9778 2.74444L15.7445 18.0667L14.5112 23.4111C14.4586 23.6702 14.4641 23.9377 14.5273 24.1943C14.5905 24.451 14.7098 24.6905 14.8766 24.8956C15.0434 25.1006 15.2536 25.2662 15.4921 25.3803C15.7305 25.4944 15.9913 25.5543 16.2556 25.5555C16.3922 25.5706 16.5301 25.5706 16.6667 25.5555L22.0556 24.3667L37.2556 9.02222C37.4222 8.85604 37.5544 8.65862 37.6447 8.44126C37.7349 8.2239 37.7813 7.99088 37.7813 7.75555C37.7813 7.52022 37.7349 7.2872 37.6447 7.06984C37.5544 6.85248 37.4222 6.65506 37.2556 6.48888ZM20.9 22.3111L16.8334 23.2111L17.7778 19.1778L29.2445 7.63333L32.3778 10.7667L20.9 22.3111ZM33.6334 9.5111L30.5 6.37777L32.2223 4.62221L35.3778 7.77777L33.6334 9.5111Z" fill="#222222"/>
</svg>
