<svg width="40" height="40" viewBox="0 0 40 40" fill="none" xmlns="http://www.w3.org/2000/svg">
<path d="M7.20578 12.5551C7.06266 12.4198 6.8943 12.3141 6.71031 12.2439C6.52633 12.1737 6.33032 12.1405 6.13348 12.146C5.93665 12.1516 5.74283 12.1959 5.56311 12.2764C5.38339 12.3568 5.22127 12.4719 5.08602 12.615C4.95078 12.7582 4.84504 12.9265 4.77486 13.1105C4.70468 13.2945 4.67142 13.4905 4.67699 13.6873C4.68256 13.8842 4.72684 14.078 4.80731 14.2577C4.88778 14.4374 5.00287 14.5995 5.14599 14.7348L18.6381 27.4773C18.9164 27.7405 19.2849 27.8871 19.668 27.8871C20.051 27.8871 20.4195 27.7405 20.6979 27.4773L34.1914 14.7348C34.3377 14.6004 34.4558 14.4384 34.5389 14.258C34.622 14.0776 34.6684 13.8825 34.6754 13.684C34.6825 13.4855 34.65 13.2876 34.58 13.1018C34.5099 12.916 34.4036 12.7459 34.2672 12.6015C34.1309 12.4572 33.9672 12.3413 33.7857 12.2607C33.6042 12.1801 33.4085 12.1363 33.2099 12.132C33.0114 12.1277 32.8139 12.1629 32.6291 12.2355C32.4442 12.3081 32.2757 12.4167 32.1332 12.5551L19.668 24.3262L7.20578 12.5551Z" fill="#222222"/>
</svg>
