<svg width="40" height="40" viewBox="0 0 40 40" fill="none" xmlns="http://www.w3.org/2000/svg">
<path d="M33.6364 18.6364H21.3636V6.36364C21.3636 6.00198 21.22 5.65513 20.9642 5.3994C20.7085 5.14367 20.3617 5 20 5C19.6383 5 19.2915 5.14367 19.0358 5.3994C18.78 5.65513 18.6364 6.00198 18.6364 6.36364V18.6364H6.36364C6.00198 18.6364 5.65513 18.78 5.3994 19.0358C5.14367 19.2915 5 19.6383 5 20C5 20.3617 5.14367 20.7085 5.3994 20.9642C5.65513 21.22 6.00198 21.3636 6.36364 21.3636H18.6364V33.6364C18.6364 33.998 18.78 34.3449 19.0358 34.6006C19.2915 34.8563 19.6383 35 20 35C20.3617 35 20.7085 34.8563 20.9642 34.6006C21.22 34.3449 21.3636 33.998 21.3636 33.6364V21.3636H33.6364C33.998 21.3636 34.3449 21.22 34.6006 20.9642C34.8563 20.7085 35 20.3617 35 20C35 19.6383 34.8563 19.2915 34.6006 19.0358C34.3449 18.78 33.998 18.6364 33.6364 18.6364Z" fill="#222222"/>
</svg>
