<svg width="40" height="40" viewBox="0 0 40 40" fill="none" xmlns="http://www.w3.org/2000/svg">
<path d="M31.5385 7.30768H8.46154C6.54978 7.30768 5 8.85746 5 10.7692V31.5384C5 33.4502 6.54978 35 8.46154 35H31.5385C33.4502 35 35 33.4502 35 31.5384V10.7692C35 8.85746 33.4502 7.30768 31.5385 7.30768Z" stroke="#222222" stroke-width="2.30769" stroke-linejoin="round"/>
<path d="M22.8846 20C23.8405 20 24.6153 19.2251 24.6153 18.2692C24.6153 17.3133 23.8405 16.5385 22.8846 16.5385C21.9287 16.5385 21.1538 17.3133 21.1538 18.2692C21.1538 19.2251 21.9287 20 22.8846 20Z" fill="#222222"/>
<path d="M28.6539 20C29.6097 20 30.3846 19.2251 30.3846 18.2692C30.3846 17.3133 29.6097 16.5385 28.6539 16.5385C27.698 16.5385 26.9231 17.3133 26.9231 18.2692C26.9231 19.2251 27.698 20 28.6539 20Z" fill="#222222"/>
<path d="M22.8846 25.7692C23.8405 25.7692 24.6153 24.9943 24.6153 24.0384C24.6153 23.0826 23.8405 22.3077 22.8846 22.3077C21.9287 22.3077 21.1538 23.0826 21.1538 24.0384C21.1538 24.9943 21.9287 25.7692 22.8846 25.7692Z" fill="#222222"/>
<path d="M28.6539 25.7692C29.6097 25.7692 30.3846 24.9943 30.3846 24.0384C30.3846 23.0826 29.6097 22.3077 28.6539 22.3077C27.698 22.3077 26.9231 23.0826 26.9231 24.0384C26.9231 24.9943 27.698 25.7692 28.6539 25.7692Z" fill="#222222"/>
<path d="M11.3461 25.7692C12.302 25.7692 13.0769 24.9943 13.0769 24.0384C13.0769 23.0826 12.302 22.3077 11.3461 22.3077C10.3902 22.3077 9.61536 23.0826 9.61536 24.0384C9.61536 24.9943 10.3902 25.7692 11.3461 25.7692Z" fill="#222222"/>
<path d="M17.1154 25.7692C18.0713 25.7692 18.8462 24.9943 18.8462 24.0384C18.8462 23.0826 18.0713 22.3077 17.1154 22.3077C16.1595 22.3077 15.3846 23.0826 15.3846 24.0384C15.3846 24.9943 16.1595 25.7692 17.1154 25.7692Z" fill="#222222"/>
<path d="M11.3461 31.5384C12.302 31.5384 13.0769 30.7636 13.0769 29.8077C13.0769 28.8518 12.302 28.0769 11.3461 28.0769C10.3902 28.0769 9.61536 28.8518 9.61536 29.8077C9.61536 30.7636 10.3902 31.5384 11.3461 31.5384Z" fill="#222222"/>
<path d="M17.1154 31.5384C18.0713 31.5384 18.8462 30.7636 18.8462 29.8077C18.8462 28.8518 18.0713 28.0769 17.1154 28.0769C16.1595 28.0769 15.3846 28.8518 15.3846 29.8077C15.3846 30.7636 16.1595 31.5384 17.1154 31.5384Z" fill="#222222"/>
<path d="M22.8846 31.5384C23.8405 31.5384 24.6153 30.7636 24.6153 29.8077C24.6153 28.8518 23.8405 28.0769 22.8846 28.0769C21.9287 28.0769 21.1538 28.8518 21.1538 29.8077C21.1538 30.7636 21.9287 31.5384 22.8846 31.5384Z" fill="#222222"/>
<path d="M10.7693 5V7.30769M29.2308 5V7.30769" stroke="#222222" stroke-width="2.30769" stroke-linecap="round" stroke-linejoin="round"/>
<path d="M35 13.0769H5" stroke="#222222" stroke-width="2.30769" stroke-linejoin="round"/>
</svg>
